# xmcd CD database file
# Copyright (C) 1993-1998 Ti Kan
# 
# Track frame offsets:
#     180
#     15517
#     30782
#     52835
# 
# Disc length: 924 seconds
# 
# Revision: 1
# Processed by: cddbd v1.4b41PL1 Copyright (c) Steve Scherf et al.
# Submitted via: DiscPlay 4.0.4
# 
DISCID=1a039a04
DTITLE=Miranda - Your Love Is So Divine
DYEAR=1900
DGENRE=
TTITLE0=Your Love Is So Divine (Pop Radio Edit)
TTITLE1=Your Love Is So Divine (Rhythm Radio Edit)
TTITLE2=Your Love Is So Divine (So Devine Dub)
TTITLE3=Your Love Is So Divine (House Dub)
EXTD=
EXTT0=
EXTT1=
EXTT2=
EXTT3=
PLAYORDER=
